<?xml version="1.0" encoding="utf-8"?>
<!-- Generator: Adobe Illustrator 16.0.0, SVG Export Plug-In . SVG Version: 6.00 Build 0)  -->
<!DOCTYPE svg PUBLIC "-//W3C//DTD SVG 1.1//EN" "http://www.w3.org/Graphics/SVG/1.1/DTD/svg11.dtd">
<svg version="1.1" id="Layer_1" xmlns="http://www.w3.org/2000/svg" xmlns:xlink="http://www.w3.org/1999/xlink" x="0px" y="0px"
	 width="814.5px" height="188.5px" viewBox="0 0 814.5 188.5" enable-background="new 0 0 814.5 188.5" xml:space="preserve">
<g>
	<g>
		<g>
			<path fill="#33415C" d="M31.901,35.476l0.587,0.343C39.957,18.416,54.551,8.802,78.175,8.802c3.987,0,8.067,0.63,12.367,1.848
				l1.56,16.104C85.9,24.917,79.959,23.7,73.788,23.7c-28.271,0-41.887,26.396-41.887,51.848v90.043h-18.65V12.222h18.65V35.476
				L31.901,35.476z"/>
			<path fill="#33415C" d="M36.32,169.998H8.834V7.811H36.32v13.334C45.729,10.02,59.756,4.401,78.175,4.401
				c4.386,0,8.816,0.651,13.584,2.018l2.87,0.823l2.49,25.581l-6.259-1.839c-6.732-1.998-11.997-2.878-17.071-2.878
				c-25.745,0-37.468,24.604-37.468,47.441L36.32,169.998L36.32,169.998z M17.656,161.194h9.848V75.548
				c0-27.093,14.487-56.253,46.285-56.253c4.224,0,8.493,0.508,13.328,1.593l-0.654-6.727c-2.878-0.638-5.609-0.949-8.287-0.949
				c-21.004,0-34.618,7.971-41.632,24.342l-1.965,4.562l-7.075-4.087V16.619h-9.848L17.656,161.194L17.656,161.194z"/>
		</g>
		<g>
			<path fill="#33415C" d="M209.739,71.212h-0.631c-18.949,23.567-92.46,16.167-92.46,58.104c0,12.056,9.954,27.585,39.404,27.585
				c12.067,0,23.955-2.464,34.768-6.521l-3.438,14.865c-10.227,2.563-21.121,3.735-39.366,3.735
				c-35.437,0-49.993-21.988-49.993-40.95c0-36.976,44.415-45.349,76.342-53.437c14.875-3.693,35.373-10.227,35.373-29.163
				c0-21.143-24.585-24.58-40.377-24.58c-18.932,0-37.825,3.75-55.839,12.761l2.801-17.06c17.36-4.653,35.067-7.749,53.4-7.749
				c35.312,0,58.647,10.867,58.647,38.829v117.961h-18.632L209.739,71.212L209.739,71.212z"/>
			<path fill="#33415C" d="M148.017,173.394c-37.363,0-54.392-23.511-54.392-45.364c0-37.969,42.304-48.444,73.192-56.094
				l6.457-1.616c15.888-3.938,32.06-9.973,32.06-24.89c0-16.667-19.573-20.169-35.971-20.169c-19.431,0-37.558,4.138-53.894,12.287
				l-7.712,3.868l4.669-28.385l2.745-0.729c19.855-5.314,37.701-7.9,54.553-7.9c52.113,0,63.046,23.506,63.046,43.23v122.365
				h-27.437V80.464c-9.097,6.179-22.038,9.753-35.535,13.482c-25.071,6.934-48.738,13.468-48.738,35.368
				c0,10.695,9.161,23.179,34.992,23.179c10.853,0,22.333-2.157,33.227-6.244l7.688-2.883l-5.896,25.501l-2.625,0.648
				C177.324,172.307,166.005,173.394,148.017,173.394z M169.362,16.452c28.871,0,44.794,10.289,44.794,28.979
				c0,23.82-27.143,30.564-38.73,33.438l-6.481,1.621c-31.174,7.732-66.521,16.467-66.521,47.54
				c0,18.188,14.09,36.553,45.594,36.553c15.761,0,26.095-0.854,35.68-2.988l1.06-4.536c-9.553,2.813-19.169,4.249-28.703,4.249
				c-30.269,0-43.815-16.073-43.815-31.99c0-28.604,29.333-36.721,55.209-43.865c16.249-4.494,31.592-8.724,38.236-16.996
				l1.322-1.654h7.15v94.396h9.809V47.632c0-23.163-17.745-34.42-54.242-34.42c-15.306,0-31.536,2.26-49.524,6.884l-0.992,6.07
				C134.689,19.71,151.511,16.452,169.362,16.452z"/>
		</g>
		<g>
			<path fill="#33415C" d="M282.744,39.487l0.629,0.694c7.114-18.628,26.681-31.38,49.575-31.38c22.438,0,42.225,9.928,47.82,32.884
				h0.631c9.635-22.017,28.521-32.884,53.088-32.884c26.96,0,48.707,13.32,48.707,41.937v114.854h-18.596V56.917
				c0-16.462-9.658-33.244-35.66-33.244c-37.28,0-46,36.318-46,54.982v86.938h-18.543V56.917c0-16.462-9.671-33.244-35.745-33.244
				c-37.259,0-45.906,36.318-45.906,54.982v86.938h-18.663V12.203h18.663V39.487L282.744,39.487z"/>
			<path fill="#33415C" d="M487.593,169.998h-27.398V56.917c0-6.766-2.265-28.834-31.254-28.834c-41.107,0-41.6,48.514-41.6,50.572
				v91.343h-27.343V56.917c0-6.766-2.259-28.834-31.347-28.834c-14.733,0-25.885,6.165-33.152,18.344
				c-7.745,12.979-8.355,27.947-8.355,32.229v91.343h-27.466V7.798h27.466V25.1c10.477-12.766,27.367-20.697,45.806-20.697
				c23.206,0,40.827,9.928,48.881,27.043c10.978-17.514,29.371-27.043,52.658-27.043c32.753,0,53.104,17.753,53.104,46.337V169.998z
				 M469,161.194h9.771V50.738c0-23.498-16.555-37.525-44.282-37.525c-23.438,0-40.391,10.451-49.062,30.231l-1.143,2.639h-6.977
				l-0.83-3.36c-6.477-26.631-32.597-29.51-43.527-29.51c-20.667,0-38.931,11.465-45.438,28.533l-0.904,2.373
				c7.344-13.717,20.342-24.848,42.045-24.848c29.644,0,40.164,20.28,40.164,37.646v104.277h9.728V78.655
				c0-22.053,10.613-59.384,50.397-59.384c29.568,0,40.061,20.28,40.061,37.646L469,161.194L469,161.194z M268.499,161.194h9.828
				V78.655c0-8.881,1.722-20.234,6.371-30.638l-6.371-6.789V16.614h-9.828V161.194z"/>
		</g>
		<g>
			<path fill="#33415C" d="M625.364,164.675c-11.725,2.776-24.459,4.317-37.556,4.317c-46.206,0-75.688-30.074-75.688-80.086
				c0-65.211,44.395-80.104,75.688-80.104c11.812,0,26.075,1.834,40.097,6.184l2.451,16.422c-14.213-5.203-28.527-8.96-42.547-8.96
				c-38.705,0-57.009,24.528-57.009,66.46c0,34.144,14.875,66.471,57.009,66.471c16.819,0,28.564-3.698,40.637-7.479
				L625.364,164.675z"/>
			<path fill="#33415C" d="M587.81,173.394c-49.408,0-80.08-32.373-80.08-84.486c0-78.415,61.291-84.506,80.08-84.506
				c13.429,0,28.136,2.259,41.405,6.386l2.642,0.812l3.943,26.5l-6.96-2.545c-16.222-5.942-29.274-8.7-41.03-8.7
				c-34.91,0-52.606,20.886-52.606,62.055c0,18.656,5.123,62.064,52.606,62.064c16.056,0,27.29-3.519,39.159-7.23l6.972-2.179
				l-1.161,7.132l-3.605,19.604l-2.796,0.661C613.96,171.9,600.974,173.394,587.81,173.394z M587.81,13.213
				c-21.433,0-71.283,7.378-71.283,75.694c0,46.686,27.308,75.675,71.283,75.675c11.498,0,22.823-1.203,33.75-3.562l1.246-6.775
				c-10.07,2.989-20.889,5.535-34.996,5.535c-38.463,0-61.425-26.487-61.425-70.871c0-45.707,21.81-70.856,61.425-70.856
				c11.081,0,22.993,2.165,37.119,6.799l-0.968-6.434C612.229,15.048,599.496,13.213,587.81,13.213z"/>
		</g>
		<g>
			<path fill="#33415C" d="M794.293,88.907c0,50.012-29.464,80.072-75.745,80.072c-46.249,0-75.729-30.062-75.729-80.072
				c0-65.206,44.378-80.104,75.729-80.104C749.848,8.802,794.293,23.701,794.293,88.907 M661.481,88.907
				c0,34.144,14.904,66.489,57.066,66.489c42.188,0,57.069-32.347,57.069-66.489c0-41.918-18.259-66.46-57.069-66.46
				C679.75,22.447,661.481,46.989,661.481,88.907"/>
			<path fill="#33415C" d="M718.548,173.394c-49.43,0-80.155-32.378-80.155-84.486c0-78.415,61.355-84.506,80.155-84.506
				c18.809,0,80.169,6.091,80.169,84.506C798.717,141.016,767.991,173.394,718.548,173.394z M718.548,13.213
				c-21.425,0-71.33,7.378-71.33,75.694c0,47.378,26.667,75.675,71.33,75.675c44.676,0,71.344-28.297,71.344-75.675
				C789.892,20.589,740,13.213,718.548,13.213z M718.548,159.798c-38.484,0-61.491-26.502-61.491-70.891
				c0-45.707,21.852-70.856,61.491-70.856c39.654,0,61.467,25.149,61.467,70.856C780.015,133.296,757.049,159.798,718.548,159.798z
				 M718.548,26.853c-34.935,0-52.669,20.886-52.669,62.055c0,18.67,5.137,62.078,52.669,62.078
				c47.53,0,52.664-43.408,52.664-62.078C771.212,47.738,753.485,26.853,718.548,26.853z"/>
		</g>
	</g>
</g>
</svg>
