<svg width="437" height="100" viewBox="0 0 437 100" fill="none" xmlns="http://www.w3.org/2000/svg">
<path d="M117.032 76.3828C113.1 82.285 106.909 86.5389 99.7024 87.8949V97.9993C112.532 96.2578 123.259 87.8618 128.331 76.3828H117.032Z" fill="#5C677D"/>
<path d="M121.088 66.4059C121.389 64.7892 121.546 63.1217 121.546 61.4171C121.546 46.5388 109.544 34.4776 94.7378 34.4776C79.9318 34.4776 67.9291 46.5388 67.9291 61.4171C67.9291 74.5908 77.3391 85.556 89.7732 87.8956V98C71.8315 95.5645 58 80.1139 58 61.4171C58 41.0284 74.4481 24.5 94.7378 24.5C115.028 24.5 131.476 41.0284 131.476 61.4171C131.476 63.109 131.362 64.7744 131.143 66.4059H121.088Z" fill="#00ABE9"/>
<path d="M89.7732 56.4283H131.142C131.621 60.1616 131.615 62.2956 131.15 66.4059H89.7732V56.4283Z" fill="#00ABE9"/>
<rect x="43.8052" y="90" width="15.8086" height="10" transform="rotate(-36.747 43.8052 90)" fill="#5C677D"/>
<path d="M20.304 91.808C20.304 70.352 21.168 55.952 22.896 50.048C25.488 40.832 32.688 35.072 41.616 35.072C44.064 35.072 45.936 35.36 49.392 36.224C49.104 31.328 48.96 29.888 48.96 25.856C46.512 25.28 45.216 25.136 43.2 25.136C32.976 25.136 27.36 28.592 21.6 38.384L22.032 26.72C18.432 26.864 17.856 26.864 16.272 26.864C14.688 26.864 14.112 26.864 10.224 26.72C10.368 30.608 10.368 34.208 10.368 35.648C10.368 49.904 9.504 69.92 7.776 98C12.528 97.856 13.536 97.856 14.256 97.856C15.12 97.856 15.84 97.856 20.304 98V91.808Z" fill="#00ABE9"/>
<path d="M161.928 98C166.392 97.856 167.112 97.856 168.984 97.856C170.712 97.856 171.72 97.856 175.752 98C180.936 85.328 196.488 50.768 207.864 26.72C203.112 26.864 202.104 26.864 201.24 26.864C200.088 26.864 199.368 26.864 194.616 26.72C192.312 32.912 191.88 33.92 185.976 48.032C181.512 58.688 176.904 69.92 171.864 81.584C171.72 82.16 170.856 84.32 169.56 87.488C158.04 53.216 151.272 32.912 149.4 26.72C145.656 26.864 144.792 26.864 143.064 26.864C141.336 26.864 140.472 26.864 136.296 26.72C156.024 80.72 158.472 87.488 161.928 98ZM231.219 1.376C227.619 1.52 226.899 1.52 224.739 1.52C222.723 1.52 221.715 1.52 217.539 1.376C217.539 5.26399 217.539 6.848 217.395 11.456C221.715 11.168 222.723 11.168 224.163 11.168C225.747 11.168 226.755 11.168 230.787 11.456L231.219 1.376ZM214.227 98C218.979 97.856 219.699 97.856 220.995 97.856C222.291 97.856 223.155 97.856 227.331 98C227.475 75.968 228.627 44.864 230.211 26.72C225.459 26.864 224.739 26.864 223.731 26.864C222.579 26.864 222.003 26.864 217.251 26.72C217.107 48.176 215.523 84.032 214.227 98ZM310.075 59.12C310.363 57.104 310.507 56.096 310.507 54.224C310.507 35.936 299.131 25.136 279.979 25.136C257.947 25.136 243.979 40.112 243.979 63.872C243.979 74.384 247.003 83.312 252.907 89.648C259.243 96.416 268.171 99.584 280.987 99.584C288.187 99.584 293.659 98.864 302.731 96.704C303.307 92.528 303.739 89.504 304.315 86.912C294.667 90.08 288.475 91.376 282.139 91.376C266.299 91.376 256.219 81.008 256.219 64.88C256.219 63.44 256.219 61.568 256.363 59.264L310.075 59.12ZM257.083 53.36C258.523 46.592 259.963 43.424 262.987 39.968C267.163 35.36 273.499 32.768 280.411 32.768C287.755 32.768 293.227 35.648 296.251 40.832C298.123 44.288 298.843 47.168 298.843 53.36H257.083ZM375.644 38.96L377.228 44.288C379.1 51.776 381.116 59.264 383.132 66.752C389.9 92.096 390.044 92.96 391.196 98C395.228 97.856 396.092 97.856 398.252 97.856C400.556 97.856 401.42 97.856 404.876 98C409.916 85.904 420.428 62.144 436.268 26.72C431.948 26.864 431.228 26.864 430.076 26.864C428.78 26.864 428.06 26.864 424.316 26.72C416.396 46.736 415.964 47.888 405.74 71.504L399.26 87.056C397.964 82.736 392.636 62.72 382.988 26.72C379.388 26.864 378.668 26.864 376.652 26.864C374.78 26.864 373.916 26.864 370.172 26.72C367.004 36.08 357.356 62 347.996 87.056C338.78 61.136 329.996 35.216 327.548 26.72C323.948 26.864 323.228 26.864 321.644 26.864C320.06 26.864 319.196 26.864 315.452 26.72C332.156 72.944 336.908 86.624 340.508 98C344.54 97.856 345.26 97.856 347.564 97.856C349.724 97.856 350.588 97.856 354.044 98C355.052 94.832 361.676 76.976 373.628 44.288L375.644 38.96Z" fill="#00ABE9"/>
</svg>
