<svg width="151" height="33" viewBox="0 0 151 33" fill="none" xmlns="http://www.w3.org/2000/svg">
<path d="M48.952 16.208C47.976 16.208 47.104 16.4 46.336 16.784C45.568 17.152 45.016 17.688 44.68 18.392V26H41.464V13.424H44.416V16.112C44.864 15.248 45.432 14.568 46.12 14.072C46.808 13.576 47.536 13.304 48.304 13.256C48.48 13.256 48.616 13.256 48.712 13.256C48.808 13.256 48.888 13.264 48.952 13.28V16.208Z" fill="#363F72"/>
<path d="M63.7053 11.336H58.0413V26H55.3293V11.336H49.6413V8.96H63.7053V11.336ZM62.4689 22.328C62.4689 21.528 62.6929 20.832 63.1409 20.24C63.6049 19.632 64.2369 19.168 65.0369 18.848C65.8369 18.512 66.7649 18.344 67.8209 18.344C68.3809 18.344 68.9489 18.384 69.5249 18.464C70.1169 18.544 70.6369 18.672 71.0849 18.848V18.056C71.0849 17.176 70.8209 16.488 70.2929 15.992C69.7649 15.496 69.0049 15.248 68.0129 15.248C67.3089 15.248 66.6449 15.376 66.0209 15.632C65.3969 15.872 64.7329 16.216 64.0289 16.664L63.1409 14.888C63.9729 14.328 64.8049 13.912 65.6369 13.64C66.4849 13.368 67.3729 13.232 68.3009 13.232C69.9809 13.232 71.3009 13.68 72.2609 14.576C73.2369 15.456 73.7249 16.712 73.7249 18.344V23.024C73.7249 23.328 73.7729 23.544 73.8689 23.672C73.9809 23.8 74.1649 23.872 74.4209 23.888V26C74.1809 26.048 73.9649 26.08 73.7729 26.096C73.5809 26.112 73.4209 26.12 73.2929 26.12C72.7329 26.12 72.3089 25.984 72.0209 25.712C71.7329 25.44 71.5649 25.12 71.5169 24.752L71.4449 24.032C70.9009 24.736 70.2049 25.28 69.3569 25.664C68.5089 26.048 67.6529 26.24 66.7889 26.24C65.9569 26.24 65.2129 26.072 64.5569 25.736C63.9009 25.384 63.3889 24.912 63.0209 24.32C62.6529 23.728 62.4689 23.064 62.4689 22.328ZM70.4609 23.096C70.6529 22.888 70.8049 22.68 70.9169 22.472C71.0289 22.264 71.0849 22.08 71.0849 21.92V20.48C70.6369 20.304 70.1649 20.176 69.6689 20.096C69.1729 20 68.6849 19.952 68.2049 19.952C67.2449 19.952 66.4609 20.144 65.8529 20.528C65.2609 20.912 64.9649 21.44 64.9649 22.112C64.9649 22.48 65.0609 22.832 65.2529 23.168C65.4609 23.504 65.7489 23.776 66.1169 23.984C66.5009 24.192 66.9729 24.296 67.5329 24.296C68.1089 24.296 68.6609 24.184 69.1889 23.96C69.7169 23.736 70.1409 23.448 70.4609 23.096ZM81.3918 26.24C80.3358 26.24 79.3358 26.072 78.3918 25.736C77.4478 25.384 76.6398 24.864 75.9678 24.176L76.9518 22.4C77.6718 23.04 78.3918 23.504 79.1118 23.792C79.8478 24.08 80.5758 24.224 81.2958 24.224C82.0318 24.224 82.6318 24.088 83.0958 23.816C83.5598 23.528 83.7918 23.112 83.7918 22.568C83.7918 22.168 83.6718 21.872 83.4318 21.68C83.1918 21.488 82.8398 21.32 82.3758 21.176C81.9278 21.032 81.3838 20.872 80.7438 20.696C79.8478 20.424 79.0958 20.144 78.4878 19.856C77.8798 19.552 77.4238 19.184 77.1198 18.752C76.8158 18.32 76.6638 17.768 76.6638 17.096C76.6638 16.28 76.8718 15.584 77.2878 15.008C77.7038 14.432 78.2798 13.992 79.0158 13.688C79.7678 13.384 80.6318 13.232 81.6078 13.232C82.5198 13.232 83.3598 13.376 84.1278 13.664C84.9118 13.936 85.5998 14.368 86.1918 14.96L85.0638 16.712C84.5038 16.2 83.9278 15.824 83.3358 15.584C82.7598 15.344 82.1358 15.224 81.4638 15.224C81.0798 15.224 80.7118 15.272 80.3598 15.368C80.0078 15.448 79.7118 15.608 79.4718 15.848C79.2478 16.072 79.1358 16.392 79.1358 16.808C79.1358 17.144 79.2318 17.416 79.4238 17.624C79.6158 17.832 79.9038 18.008 80.2878 18.152C80.6718 18.296 81.1438 18.456 81.7038 18.632C82.6798 18.92 83.5118 19.208 84.1998 19.496C84.8878 19.768 85.4158 20.128 85.7838 20.576C86.1678 21.008 86.3598 21.608 86.3598 22.376C86.3598 23.592 85.9038 24.544 84.9918 25.232C84.0958 25.904 82.8958 26.24 81.3918 26.24ZM97.4528 26L93.4208 20.216L91.3568 22.184V26H88.7168V8.48H91.3568V19.52L97.1648 13.472H99.9968L95.1248 18.728L100.261 26H97.4528Z" fill="#667085"/>
<rect y="0.99173" width="32" height="32" rx="10.2434" fill="url(#paint0_linear_418_1210)"/>
<g filter="url(#filter0_dd_418_1210)">
<path d="M14.0935 12.3048L14.1467 12.3359C14.8235 10.7595 16.1459 9.88867 18.2866 9.88867C18.6479 9.88867 19.0176 9.94574 19.4073 10.0561L19.5486 11.5148C18.9866 11.3484 18.4483 11.2382 17.8891 11.2382C15.3273 11.2382 14.0935 13.6291 14.0935 15.9346V24.0908H12.4035V10.1985H14.0935V12.3048V12.3048Z" fill="white"/>
<path fill-rule="evenodd" clip-rule="evenodd" d="M12.0003 24.4917H14.491L14.4911 15.9362C14.4911 13.8676 15.5534 11.6389 17.8863 11.6389C18.3461 11.6389 18.8231 11.7186 19.4332 11.8996L20.0003 12.0662L19.7747 9.74901L19.5146 9.67446C19.0826 9.55064 18.6811 9.49167 18.2837 9.49167C16.6147 9.49167 15.3436 10.0006 14.491 11.0084V9.80055H12.0003V24.4917ZM13.6896 23.691H12.7972V10.5952H13.6896V12.5345L14.3307 12.9048L14.5088 12.4915C15.1443 11.0086 16.378 10.2866 18.2813 10.2866C18.5239 10.2866 18.7714 10.3148 19.0322 10.3726L19.0915 10.9819C18.6533 10.8836 18.2665 10.8376 17.8837 10.8376C15.0023 10.8376 13.6896 13.4789 13.6896 15.9331V23.691Z" fill="white"/>
</g>
<defs>
<filter id="filter0_dd_418_1210" x="10.7199" y="9.49167" width="10.5608" height="18.8413" filterUnits="userSpaceOnUse" color-interpolation-filters="sRGB">
<feFlood flood-opacity="0" result="BackgroundImageFix"/>
<feColorMatrix in="SourceAlpha" type="matrix" values="0 0 0 0 0 0 0 0 0 0 0 0 0 0 0 0 0 0 127 0" result="hardAlpha"/>
<feMorphology radius="1.28042" operator="erode" in="SourceAlpha" result="effect1_dropShadow_418_1210"/>
<feOffset dy="1.28042"/>
<feGaussianBlur stdDeviation="1.28042"/>
<feColorMatrix type="matrix" values="0 0 0 0 0.0627451 0 0 0 0 0.0941176 0 0 0 0 0.156863 0 0 0 0.06 0"/>
<feBlend mode="normal" in2="BackgroundImageFix" result="effect1_dropShadow_418_1210"/>
<feColorMatrix in="SourceAlpha" type="matrix" values="0 0 0 0 0 0 0 0 0 0 0 0 0 0 0 0 0 0 127 0" result="hardAlpha"/>
<feMorphology radius="1.28042" operator="erode" in="SourceAlpha" result="effect2_dropShadow_418_1210"/>
<feOffset dy="2.56085"/>
<feGaussianBlur stdDeviation="1.28042"/>
<feColorMatrix type="matrix" values="0 0 0 0 0.0627451 0 0 0 0 0.0941176 0 0 0 0 0.156863 0 0 0 0.2 0"/>
<feBlend mode="normal" in2="effect1_dropShadow_418_1210" result="effect2_dropShadow_418_1210"/>
<feBlend mode="normal" in="SourceGraphic" in2="effect2_dropShadow_418_1210" result="shape"/>
</filter>
<linearGradient id="paint0_linear_418_1210" x1="30.5" y1="0.991731" x2="-9.08971e-07" y2="32.9917" gradientUnits="userSpaceOnUse">
<stop stop-color="#0073E6"/>
<stop offset="1" stop-color="#00ABE9"/>
</linearGradient>
</defs>
</svg>
